<mxfile host="app.diagrams.net" agent="Mozilla/5.0 (Windows NT 10.0; Win64; x64) AppleWebKit/537.36 (KHTML, like Gecko) Chrome/139.0.0.0 Safari/537.36" version="28.1.2">
  <diagram name="Página-2" id="5qEWwynJvyoE7VKPoT4s">
    <mxGraphModel dx="2911" dy="2223" grid="1" gridSize="10" guides="1" tooltips="1" connect="1" arrows="1" fold="1" page="1" pageScale="1" pageWidth="827" pageHeight="1169" math="0" shadow="0">
      <root>
        <mxCell id="0" />
        <mxCell id="1" parent="0" />
        <mxCell id="bJ6dmBdDo8EAZtO3-RhW-1" style="edgeStyle=orthogonalEdgeStyle;rounded=0;orthogonalLoop=1;jettySize=auto;html=1;exitX=0.5;exitY=1;exitDx=0;exitDy=0;entryX=0.5;entryY=0;entryDx=0;entryDy=0;" edge="1" parent="1" source="bJ6dmBdDo8EAZtO3-RhW-2" target="bJ6dmBdDo8EAZtO3-RhW-21">
          <mxGeometry relative="1" as="geometry" />
        </mxCell>
        <mxCell id="bJ6dmBdDo8EAZtO3-RhW-2" value="CADASTRO" style="ellipse;whiteSpace=wrap;html=1;" vertex="1" parent="1">
          <mxGeometry x="20" y="-130" width="120" height="80" as="geometry" />
        </mxCell>
        <mxCell id="bJ6dmBdDo8EAZtO3-RhW-3" value="mensagem&quot;campo obrigatorio em branco&quot;" style="ellipse;whiteSpace=wrap;html=1;" vertex="1" parent="1">
          <mxGeometry x="610" y="-320" width="120" height="80" as="geometry" />
        </mxCell>
        <mxCell id="bJ6dmBdDo8EAZtO3-RhW-4" value="nome, telefone, tipocaminhão,placa, fornecedor, unidade entrega, nota fiscal" style="ellipse;whiteSpace=wrap;html=1;" vertex="1" parent="1">
          <mxGeometry x="410" y="-40" width="140" height="90" as="geometry" />
        </mxCell>
        <mxCell id="bJ6dmBdDo8EAZtO3-RhW-5" value="FORMULARIO&lt;div&gt;Dados&amp;nbsp;&lt;/div&gt;&lt;div&gt;pessoais/veiculo&lt;/div&gt;" style="ellipse;whiteSpace=wrap;html=1;" vertex="1" parent="1">
          <mxGeometry x="327" y="-270" width="120" height="80" as="geometry" />
        </mxCell>
        <mxCell id="bJ6dmBdDo8EAZtO3-RhW-6" value="validação/Salvar Cadastro" style="ellipse;whiteSpace=wrap;html=1;" vertex="1" parent="1">
          <mxGeometry x="790" y="-170" width="120" height="80" as="geometry" />
        </mxCell>
        <mxCell id="bJ6dmBdDo8EAZtO3-RhW-7" value="mensagem de sucesso" style="ellipse;whiteSpace=wrap;html=1;" vertex="1" parent="1">
          <mxGeometry x="920" y="-410" width="120" height="80" as="geometry" />
        </mxCell>
        <mxCell id="bJ6dmBdDo8EAZtO3-RhW-8" value="tela inicial" style="ellipse;whiteSpace=wrap;html=1;" vertex="1" parent="1">
          <mxGeometry x="1280" y="-340" width="120" height="80" as="geometry" />
        </mxCell>
        <mxCell id="bJ6dmBdDo8EAZtO3-RhW-9" style="edgeStyle=orthogonalEdgeStyle;rounded=0;orthogonalLoop=1;jettySize=auto;html=1;exitX=0.5;exitY=0.5;exitDx=0;exitDy=0;exitPerimeter=0;" edge="1" parent="1" source="bJ6dmBdDo8EAZtO3-RhW-10" target="bJ6dmBdDo8EAZtO3-RhW-2">
          <mxGeometry relative="1" as="geometry" />
        </mxCell>
        <mxCell id="bJ6dmBdDo8EAZtO3-RhW-10" value="MOTORISTA" style="shape=umlActor;verticalLabelPosition=bottom;verticalAlign=top;html=1;outlineConnect=0;" vertex="1" parent="1">
          <mxGeometry x="-200" y="-270" width="40" height="80" as="geometry" />
        </mxCell>
        <mxCell id="bJ6dmBdDo8EAZtO3-RhW-11" value="&amp;lt;&amp;lt;extend&amp;gt;&amp;gt;" style="html=1;verticalAlign=bottom;labelBackgroundColor=none;endArrow=open;endFill=0;dashed=1;rounded=0;entryX=0.918;entryY=0.778;entryDx=0;entryDy=0;entryPerimeter=0;exitX=0.333;exitY=0;exitDx=0;exitDy=0;exitPerimeter=0;" edge="1" parent="1" source="bJ6dmBdDo8EAZtO3-RhW-6" target="bJ6dmBdDo8EAZtO3-RhW-3">
          <mxGeometry x="-0.224" y="-9" width="160" relative="1" as="geometry">
            <mxPoint x="690" y="40" as="sourcePoint" />
            <mxPoint x="850" y="40" as="targetPoint" />
            <mxPoint as="offset" />
          </mxGeometry>
        </mxCell>
        <mxCell id="bJ6dmBdDo8EAZtO3-RhW-12" value="&amp;lt;&amp;lt;include&amp;gt;&amp;gt;" style="html=1;verticalAlign=bottom;labelBackgroundColor=none;endArrow=open;endFill=0;dashed=1;rounded=0;exitX=0.926;exitY=0.269;exitDx=0;exitDy=0;exitPerimeter=0;entryX=0;entryY=0.625;entryDx=0;entryDy=0;entryPerimeter=0;" edge="1" parent="1" source="bJ6dmBdDo8EAZtO3-RhW-2" target="bJ6dmBdDo8EAZtO3-RhW-5">
          <mxGeometry x="-0.2701" y="15" width="160" relative="1" as="geometry">
            <mxPoint x="320" y="140" as="sourcePoint" />
            <mxPoint x="480" y="140" as="targetPoint" />
            <mxPoint as="offset" />
          </mxGeometry>
        </mxCell>
        <mxCell id="bJ6dmBdDo8EAZtO3-RhW-13" value="&amp;lt;&amp;lt;include&amp;gt;&amp;gt;" style="html=1;verticalAlign=bottom;labelBackgroundColor=none;endArrow=open;endFill=0;dashed=1;rounded=0;exitX=1;exitY=0;exitDx=0;exitDy=0;" edge="1" parent="1" source="bJ6dmBdDo8EAZtO3-RhW-5" target="bJ6dmBdDo8EAZtO3-RhW-4">
          <mxGeometry x="-0.1118" y="9" width="160" relative="1" as="geometry">
            <mxPoint x="560" y="80" as="sourcePoint" />
            <mxPoint x="720" y="80" as="targetPoint" />
            <mxPoint as="offset" />
          </mxGeometry>
        </mxCell>
        <mxCell id="bJ6dmBdDo8EAZtO3-RhW-14" value="&amp;lt;&amp;lt;include&amp;gt;&amp;gt;" style="html=1;verticalAlign=bottom;labelBackgroundColor=none;endArrow=open;endFill=0;dashed=1;rounded=0;entryX=0.016;entryY=0.373;entryDx=0;entryDy=0;exitX=1;exitY=0.444;exitDx=0;exitDy=0;exitPerimeter=0;entryPerimeter=0;" edge="1" parent="1" source="bJ6dmBdDo8EAZtO3-RhW-4" target="bJ6dmBdDo8EAZtO3-RhW-6">
          <mxGeometry x="-0.002" width="160" relative="1" as="geometry">
            <mxPoint x="666" y="-50" as="sourcePoint" />
            <mxPoint x="826" y="-50" as="targetPoint" />
            <mxPoint as="offset" />
          </mxGeometry>
        </mxCell>
        <mxCell id="bJ6dmBdDo8EAZtO3-RhW-15" value="&amp;lt;&amp;lt;include&amp;gt;&amp;gt;" style="html=1;verticalAlign=bottom;labelBackgroundColor=none;endArrow=open;endFill=0;dashed=1;rounded=0;exitX=0.639;exitY=-0.025;exitDx=0;exitDy=0;exitPerimeter=0;entryX=0.232;entryY=0.966;entryDx=0;entryDy=0;entryPerimeter=0;" edge="1" parent="1" source="bJ6dmBdDo8EAZtO3-RhW-6" target="bJ6dmBdDo8EAZtO3-RhW-7">
          <mxGeometry x="0.4376" y="-25" width="160" relative="1" as="geometry">
            <mxPoint x="910" y="-80" as="sourcePoint" />
            <mxPoint x="1070" y="-80" as="targetPoint" />
            <mxPoint as="offset" />
          </mxGeometry>
        </mxCell>
        <mxCell id="bJ6dmBdDo8EAZtO3-RhW-16" value="&amp;lt;&amp;lt;include&amp;gt;&amp;gt;" style="html=1;verticalAlign=bottom;labelBackgroundColor=none;endArrow=open;endFill=0;dashed=1;rounded=0;exitX=1;exitY=0.5;exitDx=0;exitDy=0;entryX=0;entryY=0.5;entryDx=0;entryDy=0;" edge="1" parent="1" source="bJ6dmBdDo8EAZtO3-RhW-7" target="bJ6dmBdDo8EAZtO3-RhW-8">
          <mxGeometry width="160" relative="1" as="geometry">
            <mxPoint x="1070" y="-110" as="sourcePoint" />
            <mxPoint x="1230" y="-110" as="targetPoint" />
          </mxGeometry>
        </mxCell>
        <mxCell id="bJ6dmBdDo8EAZtO3-RhW-17" style="edgeStyle=orthogonalEdgeStyle;rounded=0;orthogonalLoop=1;jettySize=auto;html=1;exitX=0.5;exitY=0.5;exitDx=0;exitDy=0;exitPerimeter=0;entryX=1;entryY=0.5;entryDx=0;entryDy=0;" edge="1" parent="1" source="bJ6dmBdDo8EAZtO3-RhW-18" target="bJ6dmBdDo8EAZtO3-RhW-6">
          <mxGeometry relative="1" as="geometry" />
        </mxCell>
        <mxCell id="bJ6dmBdDo8EAZtO3-RhW-18" value="ADM" style="shape=umlActor;verticalLabelPosition=bottom;verticalAlign=top;html=1;outlineConnect=0;" vertex="1" parent="1">
          <mxGeometry x="1359" y="-160" width="40" height="80" as="geometry" />
        </mxCell>
        <mxCell id="bJ6dmBdDo8EAZtO3-RhW-19" style="edgeStyle=orthogonalEdgeStyle;rounded=0;orthogonalLoop=1;jettySize=auto;html=1;exitX=0.5;exitY=0.5;exitDx=0;exitDy=0;exitPerimeter=0;entryX=0;entryY=0.5;entryDx=0;entryDy=0;" edge="1" parent="1" source="bJ6dmBdDo8EAZtO3-RhW-20" target="bJ6dmBdDo8EAZtO3-RhW-21">
          <mxGeometry relative="1" as="geometry" />
        </mxCell>
        <mxCell id="bJ6dmBdDo8EAZtO3-RhW-20" value="MOTORISTA" style="shape=umlActor;verticalLabelPosition=bottom;verticalAlign=top;html=1;outlineConnect=0;" vertex="1" parent="1">
          <mxGeometry x="-240" y="120" width="40" height="80" as="geometry" />
        </mxCell>
        <mxCell id="bJ6dmBdDo8EAZtO3-RhW-21" value="AGENDAR CARGA&amp;nbsp;" style="ellipse;whiteSpace=wrap;html=1;" vertex="1" parent="1">
          <mxGeometry x="50" y="100" width="120" height="80" as="geometry" />
        </mxCell>
        <mxCell id="bJ6dmBdDo8EAZtO3-RhW-22" value="LISTA&lt;div&gt;fornecedor/horários&lt;/div&gt;&lt;div&gt;disponiveis&lt;/div&gt;" style="ellipse;whiteSpace=wrap;html=1;" vertex="1" parent="1">
          <mxGeometry x="320" y="80" width="120" height="80" as="geometry" />
        </mxCell>
        <mxCell id="bJ6dmBdDo8EAZtO3-RhW-23" value="mensagem&lt;div&gt;&quot;Horário indisponivel, selecione um novo&amp;nbsp;&lt;/div&gt;&lt;div&gt;horário&quot;&lt;/div&gt;" style="ellipse;whiteSpace=wrap;html=1;" vertex="1" parent="1">
          <mxGeometry x="570" y="90" width="120" height="80" as="geometry" />
        </mxCell>
        <mxCell id="bJ6dmBdDo8EAZtO3-RhW-24" value="Fornecedor/Horários&lt;div&gt;selecionado&lt;/div&gt;" style="ellipse;whiteSpace=wrap;html=1;" vertex="1" parent="1">
          <mxGeometry x="620" y="280" width="120" height="80" as="geometry" />
        </mxCell>
        <mxCell id="bJ6dmBdDo8EAZtO3-RhW-25" value="Mensagem de confirmação" style="ellipse;whiteSpace=wrap;html=1;" vertex="1" parent="1">
          <mxGeometry x="770" y="170" width="120" height="80" as="geometry" />
        </mxCell>
        <mxCell id="bJ6dmBdDo8EAZtO3-RhW-26" value="Visualização do agendamento" style="ellipse;whiteSpace=wrap;html=1;" vertex="1" parent="1">
          <mxGeometry x="980" y="170" width="120" height="80" as="geometry" />
        </mxCell>
        <mxCell id="bJ6dmBdDo8EAZtO3-RhW-27" style="edgeStyle=orthogonalEdgeStyle;rounded=0;orthogonalLoop=1;jettySize=auto;html=1;exitX=0.5;exitY=0.5;exitDx=0;exitDy=0;exitPerimeter=0;" edge="1" parent="1" source="bJ6dmBdDo8EAZtO3-RhW-28" target="bJ6dmBdDo8EAZtO3-RhW-21">
          <mxGeometry relative="1" as="geometry" />
        </mxCell>
        <mxCell id="bJ6dmBdDo8EAZtO3-RhW-28" value="ADM" style="shape=umlActor;verticalLabelPosition=bottom;verticalAlign=top;html=1;outlineConnect=0;" vertex="1" parent="1">
          <mxGeometry x="1170" y="360" width="40" height="80" as="geometry" />
        </mxCell>
        <mxCell id="bJ6dmBdDo8EAZtO3-RhW-29" value="&amp;lt;&amp;lt;include&amp;gt;&amp;gt;" style="html=1;verticalAlign=bottom;labelBackgroundColor=none;endArrow=open;endFill=0;dashed=1;rounded=0;exitX=1;exitY=0.5;exitDx=0;exitDy=0;entryX=0.172;entryY=0.929;entryDx=0;entryDy=0;entryPerimeter=0;" edge="1" parent="1">
          <mxGeometry x="0.0435" y="7" width="160" relative="1" as="geometry">
            <mxPoint x="180" y="120" as="sourcePoint" />
            <mxPoint x="350.6399999999999" y="134.32000000000016" as="targetPoint" />
            <mxPoint as="offset" />
          </mxGeometry>
        </mxCell>
        <mxCell id="bJ6dmBdDo8EAZtO3-RhW-30" value="&amp;lt;&amp;lt;include&amp;gt;&amp;gt;" style="html=1;verticalAlign=bottom;labelBackgroundColor=none;endArrow=open;endFill=0;dashed=1;rounded=0;exitX=1;exitY=0.5;exitDx=0;exitDy=0;" edge="1" parent="1" source="bJ6dmBdDo8EAZtO3-RhW-22" target="bJ6dmBdDo8EAZtO3-RhW-24">
          <mxGeometry width="160" relative="1" as="geometry">
            <mxPoint x="550" y="380" as="sourcePoint" />
            <mxPoint x="710" y="380" as="targetPoint" />
          </mxGeometry>
        </mxCell>
        <mxCell id="bJ6dmBdDo8EAZtO3-RhW-31" value="&amp;lt;&amp;lt;include&amp;gt;&amp;gt;" style="html=1;verticalAlign=bottom;labelBackgroundColor=none;endArrow=open;endFill=0;dashed=1;rounded=0;exitX=0.809;exitY=0.062;exitDx=0;exitDy=0;exitPerimeter=0;entryX=0;entryY=1;entryDx=0;entryDy=0;" edge="1" parent="1" source="bJ6dmBdDo8EAZtO3-RhW-24" target="bJ6dmBdDo8EAZtO3-RhW-25">
          <mxGeometry x="-0.1207" y="13" width="160" relative="1" as="geometry">
            <mxPoint x="730" y="340" as="sourcePoint" />
            <mxPoint x="890" y="340" as="targetPoint" />
            <mxPoint as="offset" />
          </mxGeometry>
        </mxCell>
        <mxCell id="bJ6dmBdDo8EAZtO3-RhW-32" value="&amp;lt;&amp;lt;include&amp;gt;&amp;gt;" style="html=1;verticalAlign=bottom;labelBackgroundColor=none;endArrow=open;endFill=0;dashed=1;rounded=0;exitX=1;exitY=0.5;exitDx=0;exitDy=0;entryX=0;entryY=0.5;entryDx=0;entryDy=0;" edge="1" parent="1" source="bJ6dmBdDo8EAZtO3-RhW-25" target="bJ6dmBdDo8EAZtO3-RhW-26">
          <mxGeometry width="160" relative="1" as="geometry">
            <mxPoint x="840" y="310" as="sourcePoint" />
            <mxPoint x="1000" y="310" as="targetPoint" />
          </mxGeometry>
        </mxCell>
        <mxCell id="bJ6dmBdDo8EAZtO3-RhW-33" value="&amp;lt;&amp;lt;extend&amp;gt;&amp;gt;" style="html=1;verticalAlign=bottom;labelBackgroundColor=none;endArrow=open;endFill=0;dashed=1;rounded=0;exitX=0.339;exitY=0.026;exitDx=0;exitDy=0;exitPerimeter=0;entryX=0.597;entryY=1.035;entryDx=0;entryDy=0;entryPerimeter=0;" edge="1" parent="1" source="bJ6dmBdDo8EAZtO3-RhW-24" target="bJ6dmBdDo8EAZtO3-RhW-23">
          <mxGeometry x="-0.4926" y="-12" width="160" relative="1" as="geometry">
            <mxPoint x="570" y="280" as="sourcePoint" />
            <mxPoint x="570" y="270" as="targetPoint" />
            <mxPoint as="offset" />
          </mxGeometry>
        </mxCell>
        <mxCell id="bJ6dmBdDo8EAZtO3-RhW-34" style="edgeStyle=orthogonalEdgeStyle;rounded=0;orthogonalLoop=1;jettySize=auto;html=1;exitX=0.5;exitY=0.5;exitDx=0;exitDy=0;exitPerimeter=0;entryX=0;entryY=0.5;entryDx=0;entryDy=0;" edge="1" parent="1" source="bJ6dmBdDo8EAZtO3-RhW-35" target="bJ6dmBdDo8EAZtO3-RhW-37">
          <mxGeometry relative="1" as="geometry" />
        </mxCell>
        <mxCell id="bJ6dmBdDo8EAZtO3-RhW-35" value="ADM" style="shape=umlActor;verticalLabelPosition=bottom;verticalAlign=top;html=1;outlineConnect=0;" vertex="1" parent="1">
          <mxGeometry x="20" y="800" width="40" height="80" as="geometry" />
        </mxCell>
        <mxCell id="bJ6dmBdDo8EAZtO3-RhW-36" style="edgeStyle=orthogonalEdgeStyle;rounded=0;orthogonalLoop=1;jettySize=auto;html=1;exitX=0.5;exitY=1;exitDx=0;exitDy=0;entryX=0.5;entryY=0;entryDx=0;entryDy=0;" edge="1" parent="1" source="bJ6dmBdDo8EAZtO3-RhW-37" target="bJ6dmBdDo8EAZtO3-RhW-46">
          <mxGeometry relative="1" as="geometry" />
        </mxCell>
        <mxCell id="bJ6dmBdDo8EAZtO3-RhW-37" value="PAINEL DE CONTROLE" style="ellipse;whiteSpace=wrap;html=1;" vertex="1" parent="1">
          <mxGeometry x="224" y="760" width="120" height="80" as="geometry" />
        </mxCell>
        <mxCell id="bJ6dmBdDo8EAZtO3-RhW-38" value="Programação semanal de descarregamento" style="ellipse;whiteSpace=wrap;html=1;" vertex="1" parent="1">
          <mxGeometry x="440" y="670" width="120" height="80" as="geometry" />
        </mxCell>
        <mxCell id="bJ6dmBdDo8EAZtO3-RhW-39" value="EDITOR DE DADOS&lt;div&gt;&quot;fornecedor, horário, tipo e volume de carga&quot;&lt;/div&gt;" style="ellipse;whiteSpace=wrap;html=1;" vertex="1" parent="1">
          <mxGeometry x="710" y="650" width="140" height="80" as="geometry" />
        </mxCell>
        <mxCell id="bJ6dmBdDo8EAZtO3-RhW-40" value="Salvar alterações" style="ellipse;whiteSpace=wrap;html=1;" vertex="1" parent="1">
          <mxGeometry x="880" y="530" width="120" height="80" as="geometry" />
        </mxCell>
        <mxCell id="bJ6dmBdDo8EAZtO3-RhW-41" value="Atualização de agendamentos impactados" style="ellipse;whiteSpace=wrap;html=1;" vertex="1" parent="1">
          <mxGeometry x="1239" y="530" width="120" height="80" as="geometry" />
        </mxCell>
        <mxCell id="bJ6dmBdDo8EAZtO3-RhW-42" value="Confirmar alteração" style="ellipse;whiteSpace=wrap;html=1;" vertex="1" parent="1">
          <mxGeometry x="970" y="810" width="120" height="80" as="geometry" />
        </mxCell>
        <mxCell id="bJ6dmBdDo8EAZtO3-RhW-43" value="Notificação a motoristas afetados" style="ellipse;whiteSpace=wrap;html=1;" vertex="1" parent="1">
          <mxGeometry x="1310" y="710" width="120" height="80" as="geometry" />
        </mxCell>
        <mxCell id="bJ6dmBdDo8EAZtO3-RhW-44" style="edgeStyle=orthogonalEdgeStyle;rounded=0;orthogonalLoop=1;jettySize=auto;html=1;exitX=0.5;exitY=0.5;exitDx=0;exitDy=0;exitPerimeter=0;entryX=0;entryY=0.5;entryDx=0;entryDy=0;" edge="1" parent="1" source="bJ6dmBdDo8EAZtO3-RhW-45" target="bJ6dmBdDo8EAZtO3-RhW-46">
          <mxGeometry relative="1" as="geometry" />
        </mxCell>
        <mxCell id="bJ6dmBdDo8EAZtO3-RhW-45" value="ADM" style="shape=umlActor;verticalLabelPosition=bottom;verticalAlign=top;html=1;outlineConnect=0;" vertex="1" parent="1">
          <mxGeometry x="20" y="1080" width="40" height="80" as="geometry" />
        </mxCell>
        <mxCell id="bJ6dmBdDo8EAZtO3-RhW-46" value="ALTERAÇÃO&lt;div&gt;HORÁRIO/CARGA&lt;/div&gt;" style="ellipse;whiteSpace=wrap;html=1;" vertex="1" parent="1">
          <mxGeometry x="320" y="1080" width="120" height="80" as="geometry" />
        </mxCell>
        <mxCell id="bJ6dmBdDo8EAZtO3-RhW-47" value="Confirmar envio de notificações" style="ellipse;whiteSpace=wrap;html=1;" vertex="1" parent="1">
          <mxGeometry x="580" y="900" width="120" height="80" as="geometry" />
        </mxCell>
        <mxCell id="bJ6dmBdDo8EAZtO3-RhW-48" value="Notificação a motoristas afetados" style="ellipse;whiteSpace=wrap;html=1;" vertex="1" parent="1">
          <mxGeometry x="770" y="1060" width="120" height="80" as="geometry" />
        </mxCell>
        <mxCell id="bJ6dmBdDo8EAZtO3-RhW-49" style="edgeStyle=orthogonalEdgeStyle;rounded=0;orthogonalLoop=1;jettySize=auto;html=1;exitX=0.5;exitY=0.5;exitDx=0;exitDy=0;exitPerimeter=0;entryX=1;entryY=0.5;entryDx=0;entryDy=0;" edge="1" parent="1" source="bJ6dmBdDo8EAZtO3-RhW-50" target="bJ6dmBdDo8EAZtO3-RhW-48">
          <mxGeometry relative="1" as="geometry" />
        </mxCell>
        <mxCell id="bJ6dmBdDo8EAZtO3-RhW-50" value="MOTORISTA" style="shape=umlActor;verticalLabelPosition=bottom;verticalAlign=top;html=1;outlineConnect=0;" vertex="1" parent="1">
          <mxGeometry x="1400" y="1000" width="40" height="80" as="geometry" />
        </mxCell>
        <mxCell id="bJ6dmBdDo8EAZtO3-RhW-51" value="&amp;lt;&amp;lt;include&amp;gt;&amp;gt;" style="html=1;verticalAlign=bottom;labelBackgroundColor=none;endArrow=open;endFill=0;dashed=1;rounded=0;exitX=0.894;exitY=0.241;exitDx=0;exitDy=0;exitPerimeter=0;entryX=0.131;entryY=0.793;entryDx=0;entryDy=0;entryPerimeter=0;" edge="1" parent="1" source="bJ6dmBdDo8EAZtO3-RhW-37" target="bJ6dmBdDo8EAZtO3-RhW-38">
          <mxGeometry x="-0.2545" y="6" width="160" relative="1" as="geometry">
            <mxPoint x="360" y="630" as="sourcePoint" />
            <mxPoint x="520" y="630" as="targetPoint" />
            <mxPoint as="offset" />
          </mxGeometry>
        </mxCell>
        <mxCell id="bJ6dmBdDo8EAZtO3-RhW-52" value="&amp;lt;&amp;lt;include&amp;gt;&amp;gt;" style="html=1;verticalAlign=bottom;labelBackgroundColor=none;endArrow=open;endFill=0;dashed=1;rounded=0;exitX=0.997;exitY=0.426;exitDx=0;exitDy=0;exitPerimeter=0;" edge="1" parent="1" source="bJ6dmBdDo8EAZtO3-RhW-38" target="bJ6dmBdDo8EAZtO3-RhW-39">
          <mxGeometry width="160" relative="1" as="geometry">
            <mxPoint x="480" y="640" as="sourcePoint" />
            <mxPoint x="620" y="594" as="targetPoint" />
          </mxGeometry>
        </mxCell>
        <mxCell id="bJ6dmBdDo8EAZtO3-RhW-53" value="&amp;lt;&amp;lt;include&amp;gt;&amp;gt;" style="html=1;verticalAlign=bottom;labelBackgroundColor=none;endArrow=open;endFill=0;dashed=1;rounded=0;" edge="1" parent="1" source="bJ6dmBdDo8EAZtO3-RhW-39" target="bJ6dmBdDo8EAZtO3-RhW-40">
          <mxGeometry x="0.199" y="-27" width="160" relative="1" as="geometry">
            <mxPoint x="755.4399999999999" y="585.9199999999998" as="sourcePoint" />
            <mxPoint x="859.9999999999999" y="535.1999999999998" as="targetPoint" />
            <mxPoint as="offset" />
          </mxGeometry>
        </mxCell>
        <mxCell id="bJ6dmBdDo8EAZtO3-RhW-54" value="&amp;lt;&amp;lt;include&amp;gt;&amp;gt;" style="html=1;verticalAlign=bottom;labelBackgroundColor=none;endArrow=open;endFill=0;dashed=1;rounded=0;exitX=1;exitY=0.5;exitDx=0;exitDy=0;" edge="1" parent="1" source="bJ6dmBdDo8EAZtO3-RhW-40" target="bJ6dmBdDo8EAZtO3-RhW-41">
          <mxGeometry width="160" relative="1" as="geometry">
            <mxPoint x="990" y="620" as="sourcePoint" />
            <mxPoint x="1150" y="620" as="targetPoint" />
          </mxGeometry>
        </mxCell>
        <mxCell id="bJ6dmBdDo8EAZtO3-RhW-55" value="&amp;lt;&amp;lt;include&amp;gt;&amp;gt;" style="html=1;verticalAlign=bottom;labelBackgroundColor=none;endArrow=open;endFill=0;dashed=1;rounded=0;exitX=1;exitY=0.5;exitDx=0;exitDy=0;" edge="1" parent="1" source="bJ6dmBdDo8EAZtO3-RhW-42" target="bJ6dmBdDo8EAZtO3-RhW-43">
          <mxGeometry width="160" relative="1" as="geometry">
            <mxPoint x="990" y="620" as="sourcePoint" />
            <mxPoint x="1150" y="620" as="targetPoint" />
          </mxGeometry>
        </mxCell>
        <mxCell id="bJ6dmBdDo8EAZtO3-RhW-56" value="&amp;lt;&amp;lt;include&amp;gt;&amp;gt;" style="html=1;verticalAlign=bottom;labelBackgroundColor=none;endArrow=open;endFill=0;dashed=1;rounded=0;" edge="1" parent="1" target="bJ6dmBdDo8EAZtO3-RhW-47" source="bJ6dmBdDo8EAZtO3-RhW-46">
          <mxGeometry x="-0.0506" y="5" width="160" relative="1" as="geometry">
            <mxPoint x="326.99640687119285" y="906.7157287525381" as="sourcePoint" />
            <mxPoint x="437.57" y="860" as="targetPoint" />
            <mxPoint as="offset" />
          </mxGeometry>
        </mxCell>
        <mxCell id="bJ6dmBdDo8EAZtO3-RhW-57" value="&amp;lt;&amp;lt;include&amp;gt;&amp;gt;" style="html=1;verticalAlign=bottom;labelBackgroundColor=none;endArrow=open;endFill=0;dashed=1;rounded=0;exitX=1;exitY=0.5;exitDx=0;exitDy=0;entryX=0;entryY=0.5;entryDx=0;entryDy=0;" edge="1" parent="1" source="bJ6dmBdDo8EAZtO3-RhW-47" target="bJ6dmBdDo8EAZtO3-RhW-48">
          <mxGeometry width="160" relative="1" as="geometry">
            <mxPoint x="520" y="830" as="sourcePoint" />
            <mxPoint x="680" y="830" as="targetPoint" />
          </mxGeometry>
        </mxCell>
        <mxCell id="bJ6dmBdDo8EAZtO3-RhW-58" value="&amp;lt;&amp;lt;extend&amp;gt;&amp;gt;" style="html=1;verticalAlign=bottom;labelBackgroundColor=none;endArrow=open;endFill=0;dashed=1;rounded=0;exitX=0.939;exitY=0.787;exitDx=0;exitDy=0;exitPerimeter=0;" edge="1" parent="1" source="bJ6dmBdDo8EAZtO3-RhW-39" target="bJ6dmBdDo8EAZtO3-RhW-42">
          <mxGeometry x="0.3151" y="9" width="160" relative="1" as="geometry">
            <mxPoint x="890" y="610" as="sourcePoint" />
            <mxPoint x="1050" y="610" as="targetPoint" />
            <mxPoint as="offset" />
          </mxGeometry>
        </mxCell>
        <mxCell id="bJ6dmBdDo8EAZtO3-RhW-59" style="edgeStyle=orthogonalEdgeStyle;rounded=0;orthogonalLoop=1;jettySize=auto;html=1;exitX=0.5;exitY=0.5;exitDx=0;exitDy=0;exitPerimeter=0;" edge="1" parent="1" source="bJ6dmBdDo8EAZtO3-RhW-60" target="bJ6dmBdDo8EAZtO3-RhW-61">
          <mxGeometry relative="1" as="geometry" />
        </mxCell>
        <mxCell id="bJ6dmBdDo8EAZtO3-RhW-60" value="MOTORISTA" style="shape=umlActor;verticalLabelPosition=bottom;verticalAlign=top;html=1;outlineConnect=0;" vertex="1" parent="1">
          <mxGeometry x="40" y="1660" width="40" height="80" as="geometry" />
        </mxCell>
        <mxCell id="bJ6dmBdDo8EAZtO3-RhW-61" value="REPORTAR POBLEMA" style="ellipse;whiteSpace=wrap;html=1;" vertex="1" parent="1">
          <mxGeometry x="130" y="1480" width="120" height="80" as="geometry" />
        </mxCell>
        <mxCell id="bJ6dmBdDo8EAZtO3-RhW-62" value="ATRASO:&lt;div&gt;POBLEMA MECÂNICO&lt;/div&gt;&lt;div&gt;SINISTRO&lt;/div&gt;" style="ellipse;whiteSpace=wrap;html=1;" vertex="1" parent="1">
          <mxGeometry x="344" y="1410" width="140" height="80" as="geometry" />
        </mxCell>
        <mxCell id="bJ6dmBdDo8EAZtO3-RhW-63" value="Aviso de problema reportado" style="ellipse;whiteSpace=wrap;html=1;" vertex="1" parent="1">
          <mxGeometry x="430" y="1674" width="120" height="80" as="geometry" />
        </mxCell>
        <mxCell id="bJ6dmBdDo8EAZtO3-RhW-64" value="Opção selecionada&lt;div&gt;+&lt;/div&gt;&lt;div&gt;Campo de observação&lt;/div&gt;" style="ellipse;whiteSpace=wrap;html=1;" vertex="1" parent="1">
          <mxGeometry x="680" y="1260" width="140" height="80" as="geometry" />
        </mxCell>
        <mxCell id="bJ6dmBdDo8EAZtO3-RhW-65" value="Análise" style="ellipse;whiteSpace=wrap;html=1;" vertex="1" parent="1">
          <mxGeometry x="810" y="1440" width="120" height="80" as="geometry" />
        </mxCell>
        <mxCell id="bJ6dmBdDo8EAZtO3-RhW-66" value="Envio de novos horários" style="ellipse;whiteSpace=wrap;html=1;" vertex="1" parent="1">
          <mxGeometry x="1130" y="1320" width="120" height="80" as="geometry" />
        </mxCell>
        <mxCell id="bJ6dmBdDo8EAZtO3-RhW-67" style="edgeStyle=orthogonalEdgeStyle;rounded=0;orthogonalLoop=1;jettySize=auto;html=1;exitX=0.5;exitY=0.5;exitDx=0;exitDy=0;exitPerimeter=0;entryX=1;entryY=0.5;entryDx=0;entryDy=0;" edge="1" parent="1" source="bJ6dmBdDo8EAZtO3-RhW-68" target="bJ6dmBdDo8EAZtO3-RhW-63">
          <mxGeometry relative="1" as="geometry" />
        </mxCell>
        <mxCell id="bJ6dmBdDo8EAZtO3-RhW-68" value="ADM" style="shape=umlActor;verticalLabelPosition=bottom;verticalAlign=top;html=1;outlineConnect=0;" vertex="1" parent="1">
          <mxGeometry x="1410" y="1570" width="40" height="80" as="geometry" />
        </mxCell>
        <mxCell id="bJ6dmBdDo8EAZtO3-RhW-69" value="&amp;lt;&amp;lt;extend&amp;gt;&amp;gt;" style="html=1;verticalAlign=bottom;labelBackgroundColor=none;endArrow=open;endFill=0;dashed=1;rounded=0;exitX=1;exitY=0.5;exitDx=0;exitDy=0;" edge="1" parent="1" source="bJ6dmBdDo8EAZtO3-RhW-65" target="bJ6dmBdDo8EAZtO3-RhW-66">
          <mxGeometry width="160" relative="1" as="geometry">
            <mxPoint x="900" y="1180" as="sourcePoint" />
            <mxPoint x="1060" y="1180" as="targetPoint" />
          </mxGeometry>
        </mxCell>
        <mxCell id="bJ6dmBdDo8EAZtO3-RhW-70" value="&amp;lt;&amp;lt;include&amp;gt;&amp;gt;" style="html=1;verticalAlign=bottom;labelBackgroundColor=none;endArrow=open;endFill=0;dashed=1;rounded=0;exitX=1;exitY=1;exitDx=0;exitDy=0;entryX=0.028;entryY=0.358;entryDx=0;entryDy=0;entryPerimeter=0;" edge="1" parent="1" source="bJ6dmBdDo8EAZtO3-RhW-63" target="bJ6dmBdDo8EAZtO3-RhW-65">
          <mxGeometry x="0.3028" y="5" width="160" relative="1" as="geometry">
            <mxPoint x="720" y="1160" as="sourcePoint" />
            <mxPoint x="880" y="1160" as="targetPoint" />
            <mxPoint as="offset" />
          </mxGeometry>
        </mxCell>
        <mxCell id="bJ6dmBdDo8EAZtO3-RhW-71" value="&amp;lt;&amp;lt;include&amp;gt;&amp;gt;" style="html=1;verticalAlign=bottom;labelBackgroundColor=none;endArrow=open;endFill=0;dashed=1;rounded=0;exitX=1;exitY=1;exitDx=0;exitDy=0;" edge="1" parent="1" source="bJ6dmBdDo8EAZtO3-RhW-62" target="bJ6dmBdDo8EAZtO3-RhW-63">
          <mxGeometry x="0.2977" y="10" width="160" relative="1" as="geometry">
            <mxPoint x="580" y="1100" as="sourcePoint" />
            <mxPoint x="740" y="1100" as="targetPoint" />
            <mxPoint as="offset" />
          </mxGeometry>
        </mxCell>
        <mxCell id="bJ6dmBdDo8EAZtO3-RhW-72" value="&amp;lt;&amp;lt;include&amp;gt;&amp;gt;" style="html=1;verticalAlign=bottom;labelBackgroundColor=none;endArrow=open;endFill=0;dashed=1;rounded=0;exitX=0.955;exitY=0.289;exitDx=0;exitDy=0;exitPerimeter=0;entryX=0;entryY=1;entryDx=0;entryDy=0;" edge="1" parent="1" source="bJ6dmBdDo8EAZtO3-RhW-62" target="bJ6dmBdDo8EAZtO3-RhW-64">
          <mxGeometry x="-0.0968" y="8" width="160" relative="1" as="geometry">
            <mxPoint x="570" y="1110" as="sourcePoint" />
            <mxPoint x="730" y="1110" as="targetPoint" />
            <mxPoint as="offset" />
          </mxGeometry>
        </mxCell>
        <mxCell id="bJ6dmBdDo8EAZtO3-RhW-73" value="&amp;lt;&amp;lt;include&amp;gt;&amp;gt;" style="html=1;verticalAlign=bottom;labelBackgroundColor=none;endArrow=open;endFill=0;dashed=1;rounded=0;exitX=1;exitY=0;exitDx=0;exitDy=0;" edge="1" parent="1" source="bJ6dmBdDo8EAZtO3-RhW-61" target="bJ6dmBdDo8EAZtO3-RhW-62">
          <mxGeometry x="-0.3391" y="12" width="160" relative="1" as="geometry">
            <mxPoint x="270" y="1120" as="sourcePoint" />
            <mxPoint x="430" y="1120" as="targetPoint" />
            <mxPoint as="offset" />
          </mxGeometry>
        </mxCell>
        <mxCell id="bJ6dmBdDo8EAZtO3-RhW-74" style="edgeStyle=orthogonalEdgeStyle;rounded=0;orthogonalLoop=1;jettySize=auto;html=1;exitX=0.5;exitY=0.5;exitDx=0;exitDy=0;exitPerimeter=0;entryX=0.5;entryY=1;entryDx=0;entryDy=0;" edge="1" parent="1" source="bJ6dmBdDo8EAZtO3-RhW-75" target="bJ6dmBdDo8EAZtO3-RhW-78">
          <mxGeometry relative="1" as="geometry" />
        </mxCell>
        <mxCell id="bJ6dmBdDo8EAZtO3-RhW-75" value="ADM" style="shape=umlActor;verticalLabelPosition=bottom;verticalAlign=top;html=1;outlineConnect=0;" vertex="1" parent="1">
          <mxGeometry x="50" y="2338" width="40" height="80" as="geometry" />
        </mxCell>
        <mxCell id="bJ6dmBdDo8EAZtO3-RhW-76" style="edgeStyle=orthogonalEdgeStyle;rounded=0;orthogonalLoop=1;jettySize=auto;html=1;exitX=0.5;exitY=0.5;exitDx=0;exitDy=0;exitPerimeter=0;entryX=0.5;entryY=0;entryDx=0;entryDy=0;" edge="1" parent="1" source="bJ6dmBdDo8EAZtO3-RhW-77" target="bJ6dmBdDo8EAZtO3-RhW-78">
          <mxGeometry relative="1" as="geometry" />
        </mxCell>
        <mxCell id="bJ6dmBdDo8EAZtO3-RhW-77" value="MOTORISTA" style="shape=umlActor;verticalLabelPosition=bottom;verticalAlign=top;html=1;outlineConnect=0;" vertex="1" parent="1">
          <mxGeometry x="20" y="1930" width="40" height="80" as="geometry" />
        </mxCell>
        <mxCell id="bJ6dmBdDo8EAZtO3-RhW-78" value="MEUS AGENDAMENTOS" style="ellipse;whiteSpace=wrap;html=1;" vertex="1" parent="1">
          <mxGeometry x="190" y="2130" width="120" height="80" as="geometry" />
        </mxCell>
        <mxCell id="bJ6dmBdDo8EAZtO3-RhW-79" value="Agendamentos ativos" style="ellipse;whiteSpace=wrap;html=1;" vertex="1" parent="1">
          <mxGeometry x="650" y="1900" width="120" height="80" as="geometry" />
        </mxCell>
        <mxCell id="bJ6dmBdDo8EAZtO3-RhW-80" value="Histórico de agendamento&lt;span style=&quot;white-space: pre;&quot;&gt;&#x9;&lt;/span&gt;" style="ellipse;whiteSpace=wrap;html=1;" vertex="1" parent="1">
          <mxGeometry x="790" y="2060" width="120" height="80" as="geometry" />
        </mxCell>
        <mxCell id="bJ6dmBdDo8EAZtO3-RhW-81" value="FILTRO/ORDENAR" style="ellipse;whiteSpace=wrap;html=1;" vertex="1" parent="1">
          <mxGeometry x="430" y="2290" width="120" height="80" as="geometry" />
        </mxCell>
        <mxCell id="bJ6dmBdDo8EAZtO3-RhW-82" value="&amp;lt;&amp;lt;include&amp;gt;&amp;gt;" style="html=1;verticalAlign=bottom;labelBackgroundColor=none;endArrow=open;endFill=0;dashed=1;rounded=0;exitX=1;exitY=1;exitDx=0;exitDy=0;" edge="1" parent="1" source="bJ6dmBdDo8EAZtO3-RhW-78" target="bJ6dmBdDo8EAZtO3-RhW-81">
          <mxGeometry x="0.1349" y="8" width="160" relative="1" as="geometry">
            <mxPoint x="400" y="1520" as="sourcePoint" />
            <mxPoint x="560" y="1520" as="targetPoint" />
            <mxPoint as="offset" />
          </mxGeometry>
        </mxCell>
        <mxCell id="bJ6dmBdDo8EAZtO3-RhW-83" value="&amp;lt;&amp;lt;include&amp;gt;&amp;gt;" style="html=1;verticalAlign=bottom;labelBackgroundColor=none;endArrow=open;endFill=0;dashed=1;rounded=0;entryX=0;entryY=0.5;entryDx=0;entryDy=0;exitX=1;exitY=0.5;exitDx=0;exitDy=0;" edge="1" parent="1" source="bJ6dmBdDo8EAZtO3-RhW-78" target="bJ6dmBdDo8EAZtO3-RhW-80">
          <mxGeometry x="0.1667" width="160" relative="1" as="geometry">
            <mxPoint x="330" y="1520" as="sourcePoint" />
            <mxPoint x="560" y="1520" as="targetPoint" />
            <mxPoint as="offset" />
          </mxGeometry>
        </mxCell>
        <mxCell id="bJ6dmBdDo8EAZtO3-RhW-84" value="&amp;lt;&amp;lt;include&amp;gt;&amp;gt;" style="html=1;verticalAlign=bottom;labelBackgroundColor=none;endArrow=open;endFill=0;dashed=1;rounded=0;exitX=1;exitY=0;exitDx=0;exitDy=0;entryX=0;entryY=1;entryDx=0;entryDy=0;" edge="1" parent="1" source="bJ6dmBdDo8EAZtO3-RhW-78" target="bJ6dmBdDo8EAZtO3-RhW-79">
          <mxGeometry x="0.0439" y="9" width="160" relative="1" as="geometry">
            <mxPoint x="327" y="1478.95" as="sourcePoint" />
            <mxPoint x="487" y="1478.95" as="targetPoint" />
            <mxPoint as="offset" />
          </mxGeometry>
        </mxCell>
        <mxCell id="bJ6dmBdDo8EAZtO3-RhW-85" value="Data&lt;div&gt;Fornecedor&lt;/div&gt;&lt;div&gt;Status&lt;/div&gt;" style="ellipse;whiteSpace=wrap;html=1;" vertex="1" parent="1">
          <mxGeometry x="1010" y="2170" width="120" height="80" as="geometry" />
        </mxCell>
        <mxCell id="bJ6dmBdDo8EAZtO3-RhW-86" value="&amp;lt;&amp;lt;include&amp;gt;&amp;gt;" style="html=1;verticalAlign=bottom;labelBackgroundColor=none;endArrow=open;endFill=0;dashed=1;rounded=0;exitX=1;exitY=0.5;exitDx=0;exitDy=0;" edge="1" parent="1" source="bJ6dmBdDo8EAZtO3-RhW-81" target="bJ6dmBdDo8EAZtO3-RhW-85">
          <mxGeometry width="160" relative="1" as="geometry">
            <mxPoint x="560" y="1530" as="sourcePoint" />
            <mxPoint x="720" y="1530" as="targetPoint" />
          </mxGeometry>
        </mxCell>
      </root>
    </mxGraphModel>
  </diagram>
</mxfile>
